<svg width="25" height="12" viewBox="0 0 25 12" fill="none" xmlns="http://www.w3.org/2000/svg">
<path d="M24.4901 5.31492C24.4898 5.31463 24.4896 5.31429 24.4892 5.314L19.4326 0.2818C19.0538 -0.0951795 18.4411 -0.0937766 18.064 0.28509C17.687 0.663909 17.6884 1.27663 18.0673 1.65366L21.4623 5.0322H0.967731C0.433253 5.0322 0 5.46545 0 5.99993C0 6.53441 0.433253 6.96766 0.967731 6.96766H21.4622L18.0673 10.3462C17.6885 10.7232 17.687 11.336 18.0641 11.7148C18.4411 12.0937 19.0539 12.095 19.4327 11.7181L24.4893 6.68586C24.4896 6.68557 24.4898 6.68523 24.4901 6.68494C24.8691 6.30665 24.8679 5.69195 24.4901 5.31492Z" fill="#C1C1C1"/>
</svg>
