<?xml version="1.0" encoding="iso-8859-1"?>
<!-- Generator: Adobe Illustrator 24.3.0, SVG Export Plug-In . SVG Version: 6.00 Build 0)  -->
<svg version="1.1" id="Layer_1" xmlns="http://www.w3.org/2000/svg" xmlns:xlink="http://www.w3.org/1999/xlink" x="0px" y="0px"
	 viewBox="0 0 50 50" style="enable-background:new 0 0 50 50;" xml:space="preserve">
<path style="fill:#72DB7E;" d="M49.931,7.341v35.38c0,4.019-3.257,7.276-7.276,7.276H7.276C3.257,49.997,0,46.74,0,42.721V7.341
	c0-4.018,3.257-7.276,7.276-7.276h35.38C46.674,0.066,49.931,3.323,49.931,7.341L49.931,7.341z M49.931,7.341"/>
<path style="fill:#FFFFFF;" d="M19.653,34.664c-0.685,0-1.37-0.262-1.894-0.785l-6.026-6.025c-1.046-1.046-1.046-2.743,0-3.789
	c1.046-1.046,2.742-1.046,3.789,0l4.131,4.131l13.226-13.225c1.045-1.046,2.742-1.046,3.788,0c1.047,1.046,1.047,2.742,0,3.788
	L21.546,33.879C21.024,34.402,20.338,34.664,19.653,34.664L19.653,34.664z M19.653,34.664"/>
</svg>
