<svg width="43" height="47" viewBox="0 0 43 47" fill="none" xmlns="http://www.w3.org/2000/svg">
<path d="M4.19689 47C1.88788 47 0 45.1206 0 42.8219V37.0535C0 33.0778 2.97703 29.7382 6.94157 29.2901H6.98514C9.36677 29.0154 11.5596 28.0034 13.2877 26.3553L13.3894 26.2541L13.2877 26.1529C12.0098 24.8517 11.0659 23.247 10.5285 21.5266L10.4995 21.4254H10.2381C6.78183 21.4254 3.97906 18.6207 3.97906 15.1944V15.1799C3.97906 11.7681 6.76731 8.9634 10.1945 8.94894H10.3107L10.3397 8.83328C10.9206 6.37558 12.3438 4.13473 14.3333 2.54445C16.3664 0.89634 18.9078 0 21.5073 0C24.1067 0 26.6481 0.89634 28.6812 2.51553C30.6707 4.10581 32.0939 6.34666 32.6748 8.80437L32.7038 8.92002H32.82C36.2472 8.94894 39.0209 11.7392 39.0209 15.1655C39.0209 18.6063 36.2182 21.411 32.7619 21.411H32.5005L32.4715 21.5121C31.9341 23.2615 30.9612 24.8807 29.6687 26.1818L29.567 26.283L29.6687 26.3842C31.3968 28.0178 33.6623 29.0443 36.0149 29.3045C39.9939 29.7382 43 33.0778 43 37.0824V42.8219C43 45.135 41.1266 47 38.8031 47H4.19689ZM16.715 28.654C14.2752 31.2418 10.9932 32.8899 7.44985 33.2947H7.40628C5.50388 33.5115 4.06619 35.1163 4.06619 37.0391V42.952H38.9483V37.0824C38.9483 35.1452 37.5106 33.5405 35.5937 33.3381C32.0213 32.9477 28.7102 31.2996 26.2415 28.6973L26.1689 28.625L26.0817 28.6684C24.6295 29.2901 23.1047 29.6081 21.5218 29.6081C19.9098 29.6081 18.356 29.2756 16.8892 28.6395L16.8021 28.5961L16.715 28.654ZM21.5073 4.04799C17.4265 4.04799 14.101 7.35866 14.101 11.4066V18.1726C14.101 22.235 17.4265 25.5312 21.4927 25.5312C24.2374 25.5312 26.7497 24.0277 28.0277 21.5989L28.1439 21.382H21.638C20.5198 21.382 19.6049 20.4712 19.6049 19.358C19.6049 18.2448 20.5198 17.3341 21.638 17.3341H28.899V11.4066C28.899 11.3199 28.899 11.2187 28.899 11.132C28.899 11.0741 28.8845 11.0163 28.8845 10.9585C28.6521 7.08397 25.3992 4.04799 21.5073 4.04799ZM9.87504 12.9969C8.81493 13.1849 8.05978 14.0812 8.05978 15.151V15.1655C8.05978 16.2353 8.82945 17.1461 9.87504 17.3196L10.0493 17.3485V12.968L9.87504 12.9969ZM32.9652 17.363L33.1395 17.3341C34.1851 17.1461 34.9402 16.2353 34.9402 15.1655C34.9402 14.0957 34.1851 13.1849 33.1395 12.9969L32.9652 12.968V17.363Z" fill="#2A62FF"/>
</svg>
