<svg width="45" height="50" viewBox="0 0 45 50" fill="none" xmlns="http://www.w3.org/2000/svg">
<path d="M22.8118 49.3653C22.3907 49.3653 21.9793 49.189 21.6855 48.8951C21.2839 48.4838 21.137 47.8961 21.3035 47.3476L23.6444 39.6391C23.7228 39.3943 23.8501 39.169 24.0362 38.9829L34.7908 28.2479C35.829 27.2097 37.2003 26.6416 38.6695 26.6416C40.1387 26.6416 41.5099 27.2097 42.5482 28.2479C43.5864 29.2861 44.1643 30.6574 44.1643 32.1266C44.1643 33.5958 43.5962 34.9671 42.558 36.0053L31.823 46.7207C31.6369 46.9068 31.392 47.0537 31.1373 47.1223L23.233 49.3163C23.0959 49.3457 22.949 49.3653 22.8118 49.3653ZM26.5338 40.9222L25.1332 45.5258L29.8934 44.2035L37.4549 36.6518L34.1345 33.3314L26.5338 40.9222ZM38.6793 29.7759C38.0524 29.7759 37.4647 30.0207 37.0142 30.4615L36.3579 31.1178L39.6783 34.4382L40.3346 33.7819C41.2553 32.8612 41.2455 31.3724 40.3346 30.4615C39.8938 30.0207 39.3061 29.7759 38.6793 29.7759ZM7.44397 49.3653C3.33999 49.3653 0 46.0253 0 41.9213V7.44397C0 3.33999 3.33999 0 7.44397 0H31.5291C35.6331 0 38.9731 3.33999 38.9731 7.44397V19.4914C38.9731 20.3534 38.2679 21.0586 37.4059 21.0586C36.544 21.0586 35.8388 20.3534 35.8388 19.4914V7.44397C35.8388 5.06386 33.9092 3.1343 31.5291 3.1343H7.44397C5.06386 3.1343 3.1343 5.06386 3.1343 7.44397V41.9213C3.1343 44.3014 5.06386 46.231 7.44397 46.231H13.9966C14.8586 46.231 15.5638 46.9362 15.5638 47.7981C15.5638 48.6601 14.8586 49.3653 13.9966 49.3653H7.44397ZM9.39312 30.5595C8.53118 30.5595 7.82596 29.8542 7.82596 28.9923C7.82596 28.1304 8.53118 27.4252 9.39312 27.4252H21.6463C22.5082 27.4252 23.2134 28.1304 23.2134 28.9923C23.2134 29.8542 22.5082 30.5595 21.6463 30.5595H9.39312ZM9.39312 22.7237C8.53118 22.7237 7.82596 22.0185 7.82596 21.1565C7.82596 20.2946 8.53118 19.5894 9.39312 19.5894H29.5702C30.4321 19.5894 31.1373 20.2946 31.1373 21.1565C31.1373 22.0185 30.4321 22.7237 29.5702 22.7237H9.39312ZM9.39312 14.8879C8.53118 14.8879 7.82596 14.1827 7.82596 13.3208C7.82596 12.4589 8.53118 11.7536 9.39312 11.7536H29.5702C30.4321 11.7536 31.1373 12.4589 31.1373 13.3208C31.1373 14.1827 30.4321 14.8879 29.5702 14.8879H9.39312Z" fill="#2A62FF"/>
</svg>
