<svg width="58" height="49" viewBox="0 0 58 49" fill="none" xmlns="http://www.w3.org/2000/svg">
<path d="M53.3957 4.88576C50.2853 1.73083 46.1235 0 41.6739 0C37.3017 0 33.1841 1.68701 30.0959 4.7543L29.0333 5.80595L27.9707 4.7543C24.8715 1.68701 20.7539 0 16.3818 0C12.0096 0 7.89202 1.68701 4.79277 4.7543C1.70459 7.81064 0 11.8858 0 16.2128C0 20.5399 1.70459 24.615 4.79277 27.6823L24.4398 47.1268C25.6684 48.3318 27.2955 49 29.0223 49C30.7601 49 32.3872 48.3318 33.6047 47.1268L53.13 27.8028C59.5167 21.482 59.6384 11.1956 53.3957 4.88576ZM29.0333 44.8044C28.4356 44.8044 27.8711 44.5743 27.4505 44.1581L7.7924 24.7136C5.50117 22.446 4.23933 19.4225 4.23933 16.2128C4.23933 13.0031 5.50117 9.97966 7.7924 7.71205C10.0836 5.44444 13.1386 4.19562 16.3818 4.19562C19.6249 4.19562 22.6688 5.44444 24.9711 7.71205L26.0337 8.76369L24.152 10.626C23.3219 11.4476 23.3219 12.7731 24.152 13.5947C24.5505 13.989 25.0818 14.2081 25.6463 14.2081C26.2108 14.2081 26.7421 13.989 27.1406 13.5947L33.0845 7.71205C35.3757 5.44444 38.4307 4.19562 41.6739 4.19562C44.9723 4.19562 48.0495 5.47731 50.3628 7.81064C54.9896 12.4992 54.8899 20.1346 50.1415 24.8341L30.6162 44.1581C30.1956 44.5743 29.6311 44.8044 29.0333 44.8044Z" fill="#2A62FF"/>
</svg>
