<svg width="29" height="29" viewBox="0 0 29 29" fill="none" xmlns="http://www.w3.org/2000/svg">
<path d="M14.4974 0C6.49411 0 0 6.49529 0 14.5C0 22.5047 6.49411 29 14.4974 29C22.5006 29 29 22.51 29 14.5C29 6.49003 22.5059 0 14.4974 0ZM15.7909 19.0546L12.6937 22.1523C11.9208 22.9255 10.8691 23.362 9.77534 23.3567C7.4932 23.3567 5.64751 21.5054 5.64751 19.2229C5.64751 18.1289 6.08395 17.0823 6.85694 16.3092L10.6114 12.554C11.3844 11.7757 12.4361 11.3444 13.5298 11.3444C14.3186 11.3444 15.0916 11.5705 15.7594 11.9966C16.0118 12.1543 16.2432 12.3437 16.4535 12.554C16.6901 12.796 16.8163 13.1273 16.7953 13.4639C16.7743 13.7479 16.6533 14.0109 16.4535 14.216C15.9855 14.6525 15.2598 14.6525 14.7971 14.216C14.1082 13.527 12.9882 13.527 12.2941 14.216L8.5291 17.9817C7.835 18.6759 7.835 19.7962 8.5291 20.4851C9.22321 21.1741 10.3432 21.1794 11.0321 20.4851L13.2617 18.2552C13.3458 18.171 13.472 18.1447 13.5824 18.1921C14.1819 18.434 14.8234 18.5602 15.4702 18.5602H15.5859C15.7489 18.5602 15.8803 18.6917 15.8803 18.8547C15.8803 18.9231 15.8488 18.9967 15.7909 19.0546ZM22.1431 12.7013L18.3886 16.4565C17.8627 16.9824 17.2002 17.3611 16.4745 17.5399H16.443L16.2694 17.5767L16.1748 17.5925L15.9697 17.624H15.8698C15.7909 17.624 15.7278 17.6398 15.6595 17.6398L15.4807 17.6609H15.4649H15.2598C15.1126 17.6556 14.9654 17.6398 14.8181 17.6188C14.6972 17.5977 14.5815 17.5767 14.4606 17.5452L14.287 17.4978C14.2239 17.482 14.1608 17.461 14.0977 17.4347C14.0346 17.4137 13.9715 17.3926 13.9084 17.3663C13.8453 17.34 13.7822 17.3137 13.7244 17.2874C13.2879 17.0823 12.8883 16.8036 12.5465 16.4617C12.3099 16.2198 12.1837 15.8885 12.2047 15.5519C12.2257 15.2679 12.3467 14.9996 12.5465 14.7945C13.0145 14.358 13.7402 14.358 14.2029 14.7945C14.8918 15.4835 16.0118 15.4835 16.7059 14.7945L17.6734 13.8321L17.6945 13.8058L20.4604 11.0394C21.1545 10.3451 21.1545 9.22488 20.4604 8.53591C19.7663 7.84693 18.6462 7.84168 17.9574 8.53591L15.7383 10.7553C15.6542 10.8395 15.528 10.8658 15.4176 10.8185C14.8181 10.5713 14.1766 10.4503 13.5298 10.4503H13.4194C13.2985 10.4503 13.188 10.3819 13.1407 10.2715C13.0934 10.161 13.1197 10.0348 13.2038 9.94541L16.301 6.85292C17.9153 5.2383 20.5287 5.2383 22.1431 6.85292C23.7521 8.4728 23.7521 11.0867 22.1431 12.7013Z" fill="#2A62FF"/>
</svg>
