<?xml version="1.0" encoding="iso-8859-1"?>
<!-- Generator: Adobe Illustrator 24.3.0, SVG Export Plug-In . SVG Version: 6.00 Build 0)  -->
<svg version="1.1" id="Layer_1" xmlns="http://www.w3.org/2000/svg" xmlns:xlink="http://www.w3.org/1999/xlink" x="0px" y="0px"
	 viewBox="0 0 35 35" style="enable-background:new 0 0 35 35;" xml:space="preserve">
<circle style="fill:#1858FA;" cx="17.47" cy="17.482" r="17.388"/>
<path style="fill:#FFFFFF;" d="M22.009,15.192C22.009,15.192,22.009,15.192,22.009,15.192l0-3.153c0-2.483-2.021-4.504-4.504-4.504
	h-0.069c-2.481,0-4.502,2.021-4.502,4.504v3.153c-1.113,1.142-1.797,2.702-1.797,4.421c0,3.498,2.836,6.334,6.334,6.334
	s6.334-2.834,6.334-6.334C23.806,17.894,23.12,16.334,22.009,15.192z M19.078,18.657c-0.081,0.463-0.355,0.861-0.74,1.102
	c-0.159,0.101-0.239,0.288-0.199,0.469l0.485,2.3c0.029,0.139-0.076,0.27-0.219,0.27h-1.869c-0.143,0-0.248-0.13-0.219-0.27
	l0.485-2.3c0.038-0.183-0.04-0.371-0.199-0.472c-0.384-0.241-0.659-0.637-0.74-1.102c-0.018-0.103-0.027-0.21-0.025-0.32
	c0.022-0.865,0.726-1.569,1.591-1.589c0.919-0.022,1.672,0.717,1.672,1.632C19.103,18.473,19.094,18.567,19.078,18.657z
	 M17.471,13.277c-0.811,0-1.589,0.152-2.302,0.431c0,0,0,0,0,0v-1.669c0-1.252,1.017-2.269,2.269-2.269h0.069
	c1.252,0,2.269,1.017,2.269,2.269v1.67c-0.001,0-0.001-0.001-0.002-0.001C19.061,13.429,18.283,13.277,17.471,13.277z"/>
<g>
</g>
<g>
</g>
<g>
</g>
<g>
</g>
<g>
</g>
<g>
</g>
</svg>
