<svg width="20" version="1.1" id="Capa_1" xmlns="http://www.w3.org/2000/svg" xmlns:xlink="http://www.w3.org/1999/xlink" x="0px" y="0px"
	 viewBox="0 0 870.3 870.3" style="enable-background:new 0 0 870.3 870.3;" xml:space="preserve">
<style type="text/css">
	.st0{fill:#2A62FF;}
</style>
<path class="st0" d="M638.2,366C638.2,366,638.1,366,638.2,366l0-141.1c0-111.1-90.4-201.5-201.5-201.5h-3.1
	c-111,0-201.4,90.4-201.4,201.5V366c-49.8,51.1-80.4,120.9-80.4,197.8c0,156.5,126.9,283.4,283.4,283.4s283.4-126.8,283.4-283.4
	C718.6,486.9,687.8,417.1,638.2,366z M507,521c-3.6,20.7-15.9,38.5-33.1,49.3c-7.1,4.5-10.7,12.9-8.9,21l21.7,102.9
	c1.3,6.2-3.4,12.1-9.8,12.1h-83.6c-6.4,0-11.1-5.8-9.8-12.1l21.7-102.9c1.7-8.2-1.8-16.6-8.9-21.1c-17.2-10.8-29.5-28.5-33.1-49.3
	c-0.8-4.6-1.2-9.4-1.1-14.3c1-38.7,32.5-70.2,71.2-71.1c41.1-1,74.8,32.1,74.8,73C508.1,512.8,507.7,517,507,521z M435.2,280.3
	c-36.3,0-71.1,6.8-103,19.3c0,0,0,0,0,0v-74.7c0-56,45.5-101.5,101.5-101.5h3.1c56,0,101.5,45.5,101.5,101.5v74.7c0,0-0.1,0-0.1,0
	C506.3,287.1,471.4,280.3,435.2,280.3z"/>
</svg>
