<svg enable-background="new 0 0 104 131" height="20" viewBox="0 0 104 131" width="20" xmlns="http://www.w3.org/2000/svg"><g fill="#fff"><path d="m103 38.2c-.3-4.9-1.2-9.5-2.8-13.7-.8-2.2-1.9-4.3-3.3-6.2-1.3-1.8-2.6-3.5-4.2-5.1-4.5-4.7-9.9-8.1-16.1-10-7.4-2.3-14.9-2.4-22.6-.1-.3.1-.6.2-.9.3-3.6 1.1-7.1 3-10.4 5.5-4.2 3.2-7.7 7.2-10.4 11.9-1.8 3.1-2.8 6.6-3.2 10.4-.3 1.1-.3 2.2-.1 3.4.1.7.4 1.5.7 2.2.8 1.6 2 2.8 3.5 3.5 2.2 1.1 4.8 1.2 7.2.1 3-1.5 4.7-4.7 4.4-7.9 0-.3-.1-.5-.1-.8.1.3.1.5.1.8 0-.3.1-.5.1-.8.7-4.4 3.3-8 8.1-11.1 1.8-1.2 3.8-2.1 5.7-2.8 5-1.7 10.3-1.4 15.6.8 8.4 3.4 14.1 12.5 13.5 21.5-.3 4.1-1.2 7.3-2.9 10.1s-3.9 5.1-6.5 6.8c-.4.1-2.2 1.1-2.7 1.5-6 3-31.7 15.7-37.4 18.4-.3.2-.6.3-.8.4-3.6 1.7-5.4 5.8-3.8 9.7.3.8.8 1.6 1.4 2.2 2.1 2.2 5.2 3 7.9 2.1.2-.1.4-.1.6-.2l1.1-.5 2.2-1c.5-.2 36.2-17.7 36.2-17.7.3-.1.7-.3 1-.5h.1c7.8-3.9 13.7-10.7 16.4-19 .4-1.2.8-2.3 1.1-3.5 1-3.6 1.4-7.2 1.3-10.7zm-69.9-12c.1 0 .1 0 0 0 .3-.2.5-.2.7-.3-.2.1-.4.2-.7.3zm5-.7c.6.1 1.1.2 1.6.5-.5-.3-1.1-.4-1.6-.5zm5.3 3.5c.2.2.3.5.4.8-.1-.3-.2-.5-.4-.8z"/><path d="m74.7 96c-.1-.7-.4-1.5-.7-2.2-.8-1.6-2-2.8-3.5-3.5-2.2-1.1-4.8-1.2-7.2-.1-3 1.5-4.7 4.7-4.4 7.9 0 .3.1.5.1.8 0-.2 0-.4 0-.7 0 .3-.1.5-.1.8-.7 4.4-3.3 8-8.1 11.1-1.8 1.2-3.8 2.1-5.7 2.8-5 1.7-10.3 1.4-15.6-.8-8.5-3.4-14.1-12.5-13.5-21.5.3-4.1 1.2-7.3 2.9-10.1s3.9-5.1 6.5-6.8c.4-.1 2.2-1.1 2.7-1.5 1.3-1.1 1.3-1.1 0 0 6-3 31.7-15.7 37.4-18.4.4-.1.8-.3 1.2-.5 3.8-1.9 5.4-6.5 3.5-10.3s-6.5-5.4-10.3-3.5c-.3.2-.6.3-.9.5l-2.2 1c-.5.2-36.2 17.7-36.2 17.7-.3.1-.7.3-1 .5.7-.3 1.4-.5 2.1-.7-.7.1-1.4.3-2.1.7 0 0-.1 0-.1.1-7.9 3.9-13.8 10.7-16.6 19.1-.4 1.2-.8 2.3-1.1 3.5-1 3.5-1.3 7.1-1.2 10.6.3 4.9 1.2 9.5 2.8 13.7.8 2.2 1.9 4.3 3.3 6.2 1.3 1.8 2.6 3.5 4.2 5.1 4.5 4.7 9.9 8.1 16.1 10 7.4 2.3 14.9 2.4 22.6.1.3-.1.6-.2.9-.3 3.6-1.2 7.2-3.1 10.5-5.6 4.2-3.2 7.7-7.2 10.4-11.9 1.8-3.1 2.8-6.6 3.2-10.4.2-1.1.3-2.2.1-3.4z"/></g></svg>