<svg width="17" version="1.1" id="Layer_1" xmlns="http://www.w3.org/2000/svg" xmlns:xlink="http://www.w3.org/1999/xlink" x="0px" y="0px"
	 viewBox="0 0 154 113" style="enable-background:new 0 0 154 113;" xml:space="preserve">
<style type="text/css">
	.st0{fill:#B0B2BA;}
</style>
<g>
	<g>
		<path class="st0" d="M146.9,81.3h-37V70.8c0-2.5-2-3.9-3.9-3.9c-1,0-2,0.4-2.7,1.2L85.8,85.6c-1.5,1.5-1.5,4,0,5.5l17.5,17.5
			c0.7,0.8,1.7,1.2,2.7,1.2c1,0,2-0.4,2.7-1.1c0.8-0.7,1.2-1.7,1.2-2.8V95.4h37c3.9,0,7.1-3.2,7.1-7.1
			C154,84.5,150.8,81.3,146.9,81.3z"/>
		<path class="st0" d="M50.7,4.5C50,3.7,49,3.3,48,3.3C46,3.3,44,4.8,44,7.3v10.5h-37c-3.9,0-7.1,3.2-7.1,7.1c0,3.9,3.2,7.1,7.1,7.1
			h37v10.5c0,2.5,2,3.9,3.9,3.9c0,0,0,0,0,0c1,0,2-0.4,2.7-1.2l17.5-17.5c1.5-1.5,1.5-4,0-5.5L50.7,4.5z"/>
	</g>
	<path class="st0" d="M122.9,6.2c-1.1-1-2.5-1.6-4-1.6c-1.7,0-3.2,0.7-4.3,1.9l-83.9,93c-1.1,1.1-1.6,2.6-1.6,4.2
		c0.1,1.6,0.8,3.1,2,4.1l0.1,0.1c0.8,0.6,1.5,1,2.3,1.2c0.5,0.1,1,0.2,1.5,0.2c1.7,0,3.3-0.7,4.4-1.9l83.9-92.9
		c1.1-1.1,1.6-2.6,1.6-4.2C124.8,8.7,124.1,7.2,122.9,6.2z"/>
</g>
</svg>
