<svg width="15" version="1.1" id="Layer_1" xmlns="http://www.w3.org/2000/svg" xmlns:xlink="http://www.w3.org/1999/xlink" x="0px" y="0px"
	 viewBox="-49 141 512 512" style="enable-background:new -49 141 512 512;" xml:space="preserve">
<g>
	<path style="fill:#FFFFFF;" d="M304.451,484.921c-22.054,0-40.035-17.98-40.035-40.035c0-22.055,17.981-40.035,40.035-40.035
		c22.055,0,40.035,17.98,40.035,40.035C344.486,466.941,326.506,484.921,304.451,484.921"/>
	<path style="fill:#FFFFFF;" d="M311.522,550.625c-27.356,27.278-79.688,29.43-95.055,29.43s-67.773-2.152-95.055-29.43
		c-4.07-4.074-4.07-10.605,0-14.68c4.074-4.07,10.606-4.07,14.68,0c17.211,17.215,54.019,23.364,80.375,23.364
		c26.281,0,63.164-6.149,80.379-23.364c4.07-4.07,10.601-4.07,14.676,0C315.518,540.019,315.518,546.55,311.522,550.625"/>
	<path style="fill:#FFFFFF;" d="M88.295,444.89c0-22.055,17.981-40.035,40.035-40.035c22.055,0,40.035,17.98,40.035,40.035
		c0,22.051-17.98,40.035-40.035,40.035C106.276,484.921,88.295,466.941,88.295,444.89"/>
</g>
<g>
	<path style="fill:#7A4AED;" d="M208.18,393.523l243.745-132.954c-15.912-52.355-64.113-88.212-118.835-88.407H83.27
		c-54.722,0.195-102.923,36.052-118.835,88.407L208.18,393.523z M208.18,393.523"/>
	<path style="fill:#7A4AED;" d="M220.146,443.915c-7.459,4.067-16.474,4.067-23.933,0L-41.64,314.174v182.754
		c0.08,68.95,55.96,124.831,124.91,124.91h249.82c68.95-0.08,124.83-55.96,124.91-124.91V314.174L220.146,443.915z M220.146,443.915
		"/>
</g>
</svg>
