<svg width="30" height="28" viewBox="0 0 30 28" fill="none" xmlns="http://www.w3.org/2000/svg">
<path d="M2.37623 27.1218H27.6352C29.4014 27.1218 30.5385 25.2588 29.7401 23.6862L17.1106 1.30632C16.2394 -0.435439 13.7476 -0.435439 12.8766 1.30632L0.247121 23.6862C-0.527101 25.2588 0.610038 27.1218 2.37623 27.1218ZM16.9899 21.92C16.9899 23.0813 16.1431 23.9765 14.9334 23.9765C13.7237 23.9765 12.8769 23.0813 12.8769 21.92V21.8716C12.8769 20.7102 13.7237 19.8151 14.9334 19.8151C16.1431 19.8151 16.9899 20.7102 16.9899 21.8716V21.92ZM13.8202 6.79845H16.1915C16.8445 6.79845 17.2319 7.35493 17.1593 8.05656L16.1187 17.1537C16.0461 17.8069 15.6106 18.2182 15.0057 18.2182C14.4009 18.2182 13.9654 17.8069 13.8928 17.1537L12.8522 8.05656C12.7798 7.35493 13.1672 6.79845 13.8202 6.79845Z" fill="#2A62FF"/>
</svg>
