<svg width="15" version="1.1" id="Layer_1" xmlns="http://www.w3.org/2000/svg" xmlns:xlink="http://www.w3.org/1999/xlink" x="0px" y="0px"
	 viewBox="-49 141 512 512" style="enable-background:new -49 141 512 512;" xml:space="preserve">
<g>
	<path style="fill:#FFFFFF;" d="M304.451,484.921c-22.054,0-40.035-17.98-40.035-40.035c0-22.055,17.981-40.035,40.035-40.035
		c22.055,0,40.035,17.98,40.035,40.035C344.486,466.941,326.506,484.921,304.451,484.921"/>
	<path style="fill:#FFFFFF;" d="M311.522,550.625c-27.356,27.278-79.688,29.43-95.055,29.43s-67.773-2.152-95.055-29.43
		c-4.07-4.074-4.07-10.605,0-14.68c4.074-4.07,10.606-4.07,14.68,0c17.211,17.215,54.019,23.364,80.375,23.364
		c26.281,0,63.164-6.149,80.379-23.364c4.07-4.07,10.601-4.07,14.676,0C315.518,540.019,315.518,546.55,311.522,550.625"/>
	<path style="fill:#FFFFFF;" d="M88.295,444.89c0-22.055,17.981-40.035,40.035-40.035c22.055,0,40.035,17.98,40.035,40.035
		c0,22.051-17.98,40.035-40.035,40.035C106.276,484.921,88.295,466.941,88.295,444.89"/>
</g>
<g>
	<path style="fill:#0077B5;" d="M23.423,145.379h365.995c38.016,0,68.623,30.607,68.623,68.623v365.995
		c0,38.016-30.607,68.623-68.623,68.623H23.423c-38.016,0-68.623-30.607-68.623-68.623V214.002
		C-45.2,175.987-14.593,145.379,23.423,145.379L23.423,145.379z M23.423,145.379"/>
	<path style="fill:#FFFFFF;" d="M136.082,282.627c0,17.349-10.449,32.987-26.477,39.628c-16.028,6.634-34.479,2.968-46.744-9.302
		c-12.265-12.265-15.936-30.709-9.297-46.738c6.64-16.028,22.279-26.477,39.629-26.477
		C116.88,239.737,136.082,258.939,136.082,282.627L136.082,282.627z M136.082,282.627"/>
	<path style="fill:#FFFFFF;" d="M126.361,354.11v189.489c0.016,2.822-1.096,5.534-3.086,7.536c-1.992,2.002-4.7,3.128-7.521,3.128
		H70.545c-2.826,0.005-5.533-1.111-7.53-3.107c-1.996-1.997-3.112-4.705-3.107-7.53V354.11c0-5.876,4.761-10.637,10.638-10.637
		h45.208C121.615,343.489,126.361,348.245,126.361,354.11L126.361,354.11z M126.361,354.11"/>
	<path style="fill:#FFFFFF;" d="M362.655,452.759v91.726c0.005,2.596-1.018,5.089-2.857,6.921c-1.832,1.839-4.326,2.862-6.921,2.857
		h-48.613c-2.595,0.005-5.084-1.018-6.921-2.857c-1.837-1.832-2.862-4.325-2.857-6.921V455.59c0-13.269,3.891-58.103-34.683-58.103
		c-29.88,0-35.967,30.679-37.17,44.461v102.538c0,5.344-4.289,9.701-9.634,9.778h-46.955c-2.59,0-5.073-1.029-6.9-2.867
		c-1.833-1.832-2.857-4.32-2.846-6.91V353.282c-0.01-2.591,1.013-5.078,2.846-6.917c1.827-1.832,4.31-2.861,6.9-2.861h46.955
		c5.401,0,9.776,4.377,9.776,9.778v16.524c11.094-16.642,27.537-29.476,62.619-29.476
		C363.109,340.33,362.655,412.901,362.655,452.759L362.655,452.759z M362.655,452.759"/>
</g>
</svg>
