<svg width="20" height="21" viewBox="0 0 20 21" fill="none" xmlns="http://www.w3.org/2000/svg">
<path d="M10.1749 4.76043C11.4895 4.76043 12.5551 3.69477 12.5551 2.38022C12.5551 1.06566 11.4895 0 10.1749 0C8.86034 0 7.79468 1.06566 7.79468 2.38022C7.79468 3.69477 8.86034 4.76043 10.1749 4.76043Z" fill="#2A62FF"/>
<path d="M10.175 20.35C10.9637 20.35 11.603 19.7106 11.603 18.922C11.603 18.1333 10.9637 17.494 10.175 17.494C9.3864 17.494 8.74707 18.1333 8.74707 18.922C8.74707 19.7106 9.3864 20.35 10.175 20.35Z" fill="#D8E2FF"/>
<path d="M4.32643 6.94449C5.50962 6.94449 6.46878 5.98533 6.46878 4.80214C6.46878 3.61895 5.50962 2.65979 4.32643 2.65979C3.14324 2.65979 2.18408 3.61895 2.18408 4.80214C2.18408 5.98533 3.14324 6.94449 4.32643 6.94449Z" fill="#6C93FF"/>
<path d="M16.0236 17.6887C16.6809 17.6887 17.2137 17.1559 17.2137 16.4986C17.2137 15.8413 16.6809 15.3085 16.0236 15.3085C15.3663 15.3085 14.8335 15.8413 14.8335 16.4986C14.8335 17.1559 15.3663 17.6887 16.0236 17.6887Z" fill="#E6ECFF"/>
<path d="M1.90371 12.5552C2.9551 12.5552 3.80742 11.7029 3.80742 10.6515C3.80742 9.60012 2.9551 8.7478 1.90371 8.7478C0.85232 8.7478 0 9.60012 0 10.6515C0 11.7029 0.85232 12.5552 1.90371 12.5552Z" fill="#9EB8FF"/>
<path d="M18.4456 11.6022C18.9711 11.6022 19.3971 11.1762 19.3971 10.6507C19.3971 10.1252 18.9711 9.69922 18.4456 9.69922C17.9201 9.69922 17.4941 10.1252 17.4941 10.6507C17.4941 11.1762 17.9201 11.6022 18.4456 11.6022Z" fill="#E5ECFF"/>
<path d="M3.14868 15.3224C2.49764 15.9734 2.49764 17.0268 3.14868 17.6779C3.79896 18.3289 4.85391 18.3289 5.50419 17.6779C6.15523 17.0268 6.15523 15.9734 5.50419 15.3224C4.85391 14.6705 3.79973 14.6644 3.14868 15.3224Z" fill="#BDCEFF"/>
<path d="M16.0229 5.5157C16.417 5.5157 16.7365 5.19621 16.7365 4.8021C16.7365 4.40799 16.417 4.0885 16.0229 4.0885C15.6288 4.0885 15.3093 4.40799 15.3093 4.8021C15.3093 5.19621 15.6288 5.5157 16.0229 5.5157Z" fill="#F1F5FF"/>
</svg>
