<svg width="12" height="16" viewBox="0 0 12 16" fill="none" xmlns="http://www.w3.org/2000/svg">
<path d="M0.039358 8.25688C-0.0548922 7.44005 0.0236496 6.65149 0.237283 5.92262C0.947302 3.50039 3.17475 1.71906 5.8169 1.68764V0.10424C5.8169 0.0162733 5.92686 -0.0308518 5.99911 0.0225567L9.25703 2.41651C9.31044 2.45735 9.31044 2.53904 9.25703 2.57674L6.00226 4.97069C5.92686 5.0241 5.82004 4.97698 5.82004 4.88901V3.30875C4.08269 3.33702 2.59982 4.40833 1.96206 5.92262C1.72015 6.49441 1.59763 7.12588 1.63219 7.78877C1.67931 8.69986 2.02175 9.53869 2.56212 10.2173C2.85116 10.5786 2.78204 11.1064 2.40818 11.3797C2.05317 11.6405 1.55679 11.5682 1.28346 11.2226C0.614284 10.3869 0.168167 9.36904 0.039358 8.25688ZM9.44553 5.21574C9.98904 5.8912 10.3315 6.73317 10.3755 7.64426C10.41 8.31029 10.2844 8.94177 10.0456 9.51041C9.40783 11.0247 7.92496 12.0992 6.18761 12.1243V10.544C6.18761 10.4561 6.07766 10.4089 6.0054 10.4623L2.74748 12.8563C2.69407 12.8971 2.69407 12.9788 2.74748 13.0165L6.00226 15.4105C6.07766 15.4639 6.18447 15.4168 6.18447 15.3288V13.7454C8.82662 13.7171 11.0572 11.9358 11.7641 9.51041C11.9777 8.78154 12.0531 7.99298 11.962 7.17615C11.8363 6.064 11.3902 5.04609 10.7211 4.21041C10.4446 3.86482 9.95134 3.79257 9.59633 4.05332C9.22561 4.32665 9.1565 4.85445 9.44553 5.21574Z" fill="#B0B2BA"/>
</svg>
