<svg width="27" height="27" viewBox="0 0 27 27" fill="none" xmlns="http://www.w3.org/2000/svg">
<path d="M11.0742 6.48633C8.5445 6.48633 6.48633 8.5445 6.48633 11.0742C6.48633 13.604 8.5445 15.6621 11.0742 15.6621C13.604 15.6621 15.6621 13.604 15.6621 11.0742C15.6621 8.5445 13.604 6.48633 11.0742 6.48633Z" fill="#2A62FF"/>
<path d="M26.3629 23.008L20.1709 16.9014C19.2728 18.2194 18.1327 19.3595 16.8147 20.2576L23.0073 26.3636C23.47 26.8263 23.9574 26.9999 24.5653 26.9999C25.1732 26.9999 25.7804 26.769 26.2431 26.3063C27.1686 25.3808 27.2884 23.9334 26.3629 23.008Z" fill="#2A62FF"/>
<path d="M11.0742 0C4.96779 0 0 4.96779 0 11.0742C0 17.1807 4.96779 22.1485 11.0742 22.1485C17.1807 22.1485 22.1485 17.1807 22.1485 11.0742C22.1485 4.96779 17.1807 0 11.0742 0ZM11.0742 18.9844C6.71283 18.9844 3.16407 15.4356 3.16407 11.0742C3.16407 6.71283 6.71283 3.16407 11.0742 3.16407C15.4356 3.16407 18.9844 6.71283 18.9844 11.0742C18.9844 15.4356 15.4356 18.9844 11.0742 18.9844Z" fill="#2A62FF"/>
</svg>
