<svg xmlns="http://www.w3.org/2000/svg" width="48" height="48" viewBox="0 0 48 48"><path fill="#0097A7" d="M42,37c0,2.762-2.238,5-5,5H11c-2.762,0-5-2.238-5-5V11c0-2.762,2.238-5,5-5h26c2.762,0,5,2.238,5,5V37z"></path><path fill="#37474F" d="M11,42h26c2.762,0,5-2.238,5-5v-5c-1.06-0.305-9.425-2.542-17.75-2.542C15.333,29.458,6,32,6,32v5C6,39.762,8.238,42,11,42z"></path><path fill="#FFF" d="M34.666,13.001c-0.519,0-1.034,0.014-1.548,0.026c-1.714,0.046-3.483,0.013-5.218-0.026c-0.069-0.006-0.176,0.033-0.239,0.099c-0.064,0.067-0.103,0.16-0.103,0.256v0.731c0,0.194,0.146,0.354,0.333,0.355c2.504,0.026,2.883,0.714,2.883,3.062V27.8c0,0-1.307-1.456-1.726-1.933c-1.365-1.554-2.855-3.254-4.255-4.901c-1.001-1.175-1.94-2.242-2.79-3.207c-1.707-1.939-3.056-3.472-3.77-4.603c-0.064-0.098-0.167-0.155-0.279-0.155c-0.361,0-0.732,0.014-1.1,0.026c-1.199,0.049-2.339,0.014-3.511-0.026c-0.094,0.005-0.179,0.032-0.243,0.098C13.036,13.166,13,13.26,13,13.355v0.731c0,0.196,0.149,0.355,0.334,0.355c2.167,0,2.934,0.771,2.934,2.949l0.016,13.081v0.002V30.5c-0.027,1.523-1.281,2.055-2.522,2.055c-0.186,0-0.335,0.159-0.335,0.354v0.735c0,0.097,0.035,0.188,0.101,0.255c0.065,0.065,0.141,0.093,0.241,0.101c1.749-0.044,3.515-0.075,5.282-0.031C19.646,33.983,20.24,34,20.825,34c0.184,0,0.333-0.16,0.333-0.355v-0.735c0-0.195-0.149-0.354-0.333-0.354c-1.801,0-2.937-0.803-2.806-2.328c0.016-0.001,0.005,0.002-0.023,0.006V18.028l8.681,10.22c0,0,5.179,1.168,5.827,1.153V16.997c0-2.555,0.723-2.555,2.162-2.555c0.186,0,0.334-0.159,0.334-0.355v-0.731C35,13.159,34.852,13.001,34.666,13.001z"></path><path fill="#FFF" d="M42,32v-2.071c-2.09-0.552-9.926-2.471-17.75-2.471c-7.978,0-16.123,1.933-18.25,2.476V32c0,0,9.333-2.542,18.25-2.542C32.575,29.458,40.94,31.695,42,32z"></path></svg>