<svg xmlns="http://www.w3.org/2000/svg" viewBox="0 0 64 64"><path fill="#85cbf8" d="M30.713,3c-15.464,0-28,12.536-28,28s12.536,28,28,28s28-12.536,28-28S46.177,3,30.713,3z"></path><path fill="#7bbeeb" d="M30.713,3v56c15.464,0,28-12.536,28-28S46.177,3,30.713,3z"></path><path fill="#9fddff" d="M15.713,31c0.12-12.237,3.798-20.999,10-27.54C10.503,6.252,0.436,20.845,3.227,36.055 C5.326,47.492,14.276,56.441,25.713,58.54C19.593,51.94,15.601,42.395,15.713,31z"></path><path fill="#8d6c9f" d="M6,29c-0.552,0-1,0.448-1,1v2c0,0.552,0.448,1,1,1s1-0.448,1-1v-2C7,29.448,6.552,29,6,29z"></path><path fill="#8d6c9f" d="M11,33c0.552,0,1-0.448,1-1v-2c0-0.552-0.448-1-1-1s-1,0.448-1,1v2C10,32.552,10.448,33,11,33z"></path><path fill="#8d6c9f" d="M16,33c0.552,0,1-0.448,1-1v-2c0-0.552-0.448-1-1-1c-0.552,0-1,0.448-1,1v2 C15,32.552,15.448,33,16,33z"></path><path fill="#8d6c9f" d="M21,33c0.552,0,1-0.448,1-1v-2c0-0.552-0.448-1-1-1s-1,0.448-1,1v2C20,32.552,20.448,33,21,33z"></path><path fill="#8d6c9f" d="M26,33c0.552,0,1-0.448,1-1v-2c0-0.552-0.448-1-1-1s-1,0.448-1,1v2C25,32.552,25.448,33,26,33z"></path><path fill="#8d6c9f" d="M31,33c0.552,0,1-0.448,1-1v-2c0-0.552-0.448-1-1-1s-1,0.448-1,1v2C30,32.552,30.448,33,31,33z"></path><path fill="#8d6c9f" d="M36,33c0.552,0,1-0.448,1-1v-2c0-0.552-0.448-1-1-1s-1,0.448-1,1v2C35,32.552,35.448,33,36,33z"></path><path fill="#8d6c9f" d="M41,33c0.552,0,1-0.448,1-1v-2c0-0.552-0.448-1-1-1s-1,0.448-1,1v2C40,32.552,40.448,33,41,33z"></path><path fill="#8d6c9f" d="M46,33c0.552,0,1-0.448,1-1v-2c0-0.552-0.448-1-1-1s-1,0.448-1,1v2C45,32.552,45.448,33,46,33z"></path><path fill="#8d6c9f" d="M51,33c0.552,0,1-0.448,1-1v-2c0-0.552-0.448-1-1-1s-1,0.448-1,1v2C50,32.552,50.448,33,51,33z"></path><path fill="#8d6c9f" d="M56,33c0.552,0,1-0.448,1-1v-2c0-0.552-0.448-1-1-1s-1,0.448-1,1v2C55,32.552,55.448,33,56,33z"></path><g><circle cx="31" cy="31" r="28" fill="none" stroke="#8d6c9f" stroke-miterlimit="10" stroke-width="2"></circle><path fill="none" stroke="#8d6c9f" stroke-miterlimit="10" stroke-width="2" d="M9.325,48.32C14.459,45.073,22.262,43,31,43 c8.884,0,16.801,2.142,21.931,5.484"></path><path fill="none" stroke="#8d6c9f" stroke-miterlimit="10" stroke-width="2" d="M53.085,13.568 C47.869,16.884,39.942,19,31.066,19c-9.025,0-17.068-2.188-22.279-5.6"></path></g><g><path fill="none" stroke="#8d6c9f" stroke-linecap="round" stroke-linejoin="round" stroke-miterlimit="10" stroke-width="2" d="M31,59c-7.304,0-13.612-10.11-14.713-23.02"></path><path fill="none" stroke="#8d6c9f" stroke-linecap="round" stroke-linejoin="round" stroke-miterlimit="10" stroke-width="2" d="M16.271,25.991C17.548,12.81,23.683,3,31,3"></path></g><g><path fill="none" stroke="#8d6c9f" stroke-linecap="round" stroke-linejoin="round" stroke-miterlimit="10" stroke-width="2" d="M45.777,35.996C44.48,48.997,38.341,59,31,59"></path><path fill="none" stroke="#8d6c9f" stroke-linecap="round" stroke-linejoin="round" stroke-miterlimit="10" stroke-width="2" d="M31,3 c7.308,0,13.42,9.555,14.777,23.007"></path></g><g><line x1="31" x2="31" y1="3" y2="26" fill="none" stroke="#8d6c9f" stroke-linecap="round" stroke-linejoin="round" stroke-miterlimit="10" stroke-width="2"></line><line x1="31" x2="31" y1="36" y2="59" fill="none" stroke="#8d6c9f" stroke-linecap="round" stroke-linejoin="round" stroke-miterlimit="10" stroke-width="2"></line></g></svg>