<svg xmlns="http://www.w3.org/2000/svg"  viewBox="0 0 100 100" width="480px" height="480px"><circle cx="50" cy="50" r="35" fill="#e3e2e3"/><circle cx="50" cy="50" r="31" fill="#fff"/><path fill="#e85654" d="M68.532,34.477c-2.092-2.15-2.978-1.985-2.978-1.985L50,47.628L34.446,32.492 c0,0-0.886-0.165-2.978,1.985s-1.904,3.031-1.904,3.031L46.5,54.082V73.75c0,0,0.5,0.75,3.5,0.75s3.5-0.75,3.5-0.75V54.082 l16.936-16.573C70.436,37.509,70.625,36.627,68.532,34.477z"/><g><path fill="#1f212b" d="M50,86c-19.851,0-36-16.149-36-36s16.149-36,36-36s36,16.149,36,36S69.851,86,50,86z M50,16 c-18.748,0-34,15.252-34,34s15.252,34,34,34s34-15.252,34-34S68.748,16,50,16z"/><path fill="#1f212b" d="M65.5,24.227c-0.087,0-0.174-0.022-0.254-0.069c-0.638-0.376-1.3-0.734-1.969-1.066 c-0.247-0.123-0.348-0.423-0.226-0.671c0.124-0.247,0.426-0.347,0.671-0.226c0.689,0.343,1.373,0.714,2.031,1.102 c0.238,0.141,0.317,0.447,0.177,0.685C65.838,24.139,65.671,24.227,65.5,24.227z"/><path fill="#1f212b" d="M68.5,26.249c-0.106,0-0.213-0.033-0.304-0.103c-0.323-0.247-0.651-0.487-0.983-0.721 c-0.227-0.159-0.281-0.471-0.122-0.696s0.472-0.28,0.696-0.122c0.344,0.241,0.684,0.489,1.017,0.744 c0.22,0.168,0.261,0.481,0.094,0.701C68.799,26.182,68.65,26.249,68.5,26.249z"/><path fill="#1f212b" d="M50,81c-17.094,0-31-13.906-31-31s13.906-31,31-31c3.665,0,7.256,0.635,10.672,1.887 c0.26,0.096,0.393,0.383,0.298,0.642c-0.095,0.261-0.383,0.393-0.642,0.298C57.022,20.614,53.548,20,50,20 c-16.542,0-30,13.458-30,30s13.458,30,30,30s30-13.458,30-30c0-8.439-3.585-16.535-9.836-22.213 c-0.205-0.186-0.22-0.502-0.034-0.706c0.187-0.204,0.503-0.219,0.706-0.034C77.296,32.914,81,41.279,81,50 C81,67.094,67.094,81,50,81z"/><path fill="#1f212b" d="M50,75c-3.032,0-3.764-0.745-3.916-0.973C46.029,73.945,46,73.849,46,73.75V54.292L29.214,37.866 c-0.07-0.069-0.119-0.157-0.139-0.252c-0.058-0.269-0.081-1.313,2.034-3.485c2.114-2.172,3.163-2.174,3.428-2.128 c0.097,0.018,0.187,0.064,0.257,0.133L50,46.931l15.206-14.797c0.071-0.069,0.16-0.115,0.257-0.133 c0.266-0.047,1.313-0.045,3.428,2.128c2.115,2.173,2.092,3.217,2.034,3.485c-0.021,0.096-0.069,0.184-0.139,0.252L54,54.292V73.75 c0,0.099-0.029,0.195-0.084,0.277C53.764,74.255,53.032,75,50,75z M47,73.525C47.234,73.66,48.011,74,50,74 c1.956,0,2.74-0.329,3-0.484V54.082c0-0.134,0.054-0.263,0.15-0.357l16.776-16.417c-0.066-0.261-0.364-1.056-1.752-2.482l0,0 c-1.363-1.401-2.146-1.733-2.438-1.812L50.349,47.987c-0.194,0.188-0.503,0.188-0.697,0L34.258,33.007 c-0.26,0.074-1.045,0.393-2.432,1.818c-1.366,1.403-1.676,2.194-1.746,2.489l16.77,16.41c0.096,0.094,0.15,0.223,0.15,0.357V73.525 z"/></g></svg>